<svg width="579" height="579" viewBox="0 0 579 579" fill="none" xmlns="http://www.w3.org/2000/svg">
<path d="M579 442.819H0V443.109H579V442.819Z" fill="#E0E0E0"/>
<path d="M439.264 453.496H399.429V453.786H439.264V453.496Z" fill="#E0E0E0"/>
<path d="M486.128 452.674H463.71V452.963H486.128V452.674Z" fill="#E0E0E0"/>
<path d="M286.42 453.357H256.682V453.646H286.42V453.357Z" fill="#E0E0E0"/>
<path d="M307.901 457.468H287.589V457.757H307.901V457.468Z" fill="#E0E0E0"/>
<path d="M167.528 450.427H106.165V450.717H167.528V450.427Z" fill="#E0E0E0"/>
<path d="M274.446 391.172H50.8478C49.0961 391.169 47.4173 390.471 46.1798 389.232C44.9422 387.992 44.2472 386.312 44.2472 384.56V70.2442C44.2624 68.5026 44.9642 66.8374 46.2001 65.6102C47.436 64.383 49.1061 63.6929 50.8478 63.6899H274.446C276.2 63.6899 277.882 64.3866 279.122 65.6266C280.362 66.8666 281.058 68.5485 281.058 70.3021V384.56C281.058 386.314 280.362 387.996 279.122 389.236C277.882 390.476 276.2 391.172 274.446 391.172ZM50.8478 63.9215C49.1729 63.9246 47.5677 64.5921 46.3845 65.7775C45.2012 66.9629 44.5367 68.5693 44.5367 70.2442V384.56C44.5367 386.235 45.2012 387.841 46.3845 389.027C47.5677 390.212 49.1729 390.88 50.8478 390.883H274.446C276.122 390.88 277.728 390.213 278.913 389.028C280.099 387.843 280.766 386.236 280.769 384.56V70.2442C280.766 68.5683 280.099 66.9619 278.913 65.7768C277.728 64.5917 276.122 63.9246 274.446 63.9215H50.8478Z" fill="#E0E0E0"/>
<path d="M524.933 391.172H301.323C299.57 391.169 297.89 390.472 296.651 389.232C295.412 387.993 294.714 386.313 294.711 384.56V70.2442C294.729 68.5016 295.434 66.8363 296.671 65.6094C297.909 64.3826 299.58 63.6929 301.323 63.6899H524.933C526.673 63.696 528.34 64.3873 529.573 65.6142C530.807 66.8411 531.507 68.5046 531.522 70.2442V384.56C531.522 386.31 530.829 387.988 529.593 389.228C528.358 390.467 526.683 391.166 524.933 391.172ZM301.323 63.9215C299.647 63.9246 298.041 64.5917 296.856 65.7768C295.671 66.9619 295.003 68.5683 295 70.2442V384.56C295.003 386.236 295.671 387.843 296.856 389.028C298.041 390.213 299.647 390.88 301.323 390.883H524.933C526.609 390.88 528.215 390.213 529.4 389.028C530.585 387.843 531.253 386.236 531.256 384.56V70.2442C531.253 68.5683 530.585 66.9619 529.4 65.7768C528.215 64.5917 526.609 63.9246 524.933 63.9215H301.323Z" fill="#E0E0E0"/>
<path d="M502.607 91.7944H328.096V241.825H502.607V91.7944Z" fill="#E0E0E0"/>
<path d="M506.486 91.7944H331.975V241.825H506.486V91.7944Z" fill="#F0F0F0"/>
<path d="M499.526 234.785V98.8354L338.935 98.8354V234.785H499.526Z" fill="#FAFAFA"/>
<path d="M448.204 234.785V98.8354H437.712V234.785H448.204Z" fill="#E0E0E0"/>
<path d="M393.014 234.785V98.8354H382.522V234.785H393.014Z" fill="#E0E0E0"/>
<path d="M451.898 239.243V93.5894H441.406V239.243H451.898Z" fill="#F0F0F0"/>
<path d="M396.696 239.254V93.6011H386.205V239.254H396.696Z" fill="#F0F0F0"/>
<path d="M499.526 234.773V98.8237H496.597V234.773H499.526Z" fill="#E0E0E0"/>
<path d="M205.36 210.281C205.36 210.281 184.122 173.7 213.593 144.53C213.593 144.53 221.282 149.544 221.166 156.283C221.051 163.023 212.922 164.725 214.67 170.353C216.419 175.981 224.073 181.482 219.047 186.137C214.022 190.792 219.858 194.914 219.522 200.612C219.186 206.309 205.36 210.281 205.36 210.281Z" fill="#E0E0E0"/>
<path d="M208.695 216.268C208.695 216.268 217.31 174.835 180.162 156.469C180.162 156.469 174.441 163.648 176.688 170.006C178.934 176.363 187.168 175.414 187.283 181.308C187.399 187.202 181.875 194.845 188.105 197.67C194.336 200.496 190.109 206.263 192.228 211.566C194.347 216.87 208.695 216.268 208.695 216.268Z" fill="#E6E6E6"/>
<path d="M189.785 205.742C189.785 205.742 190.155 241.512 204.457 241.512C218.758 241.512 219.117 205.742 219.117 205.742H189.785Z" fill="#F0F0F0"/>
<path d="M103.861 228.057C103.861 228.057 104.66 241.513 135.197 241.513C165.733 241.513 166.544 228.057 166.544 228.057H103.861Z" fill="#E6E6E6"/>
<path d="M425.797 309.186H409.677C407.669 309.186 406.041 310.814 406.041 312.822V339.479C406.041 341.487 407.669 343.115 409.677 343.115H425.797C427.805 343.115 429.433 341.487 429.433 339.479V312.822C429.433 310.814 427.805 309.186 425.797 309.186Z" fill="#F0F0F0"/>
<path d="M468.55 320.28H457.699C456.35 320.28 455.256 321.374 455.256 322.723V340.672C455.256 342.022 456.35 343.116 457.699 343.116H468.55C469.899 343.116 470.993 342.022 470.993 340.672V322.723C470.993 321.374 469.899 320.28 468.55 320.28Z" fill="#E6E6E6"/>
<path d="M470.171 318.068H456.078C455.624 318.068 455.256 318.436 455.256 318.89V319.816C455.256 320.271 455.624 320.639 456.078 320.639H470.171C470.625 320.639 470.993 320.271 470.993 319.816V318.89C470.993 318.436 470.625 318.068 470.171 318.068Z" fill="#F0F0F0"/>
<path d="M368.73 324.24C368.73 324.24 369.309 343.115 391.416 343.115C413.522 343.115 414.112 324.24 414.112 324.24H368.73Z" fill="#E6E6E6"/>
<path d="M313.749 299.308H347.203V292.707H313.749V299.308Z" fill="#E0E0E0"/>
<path d="M513.527 292.719H347.203V299.32H513.527V292.719Z" fill="#F0F0F0"/>
<path d="M313.749 349.716H347.203V343.115H313.749V349.716Z" fill="#E0E0E0"/>
<path d="M513.527 343.115H347.203V349.716H513.527V343.115Z" fill="#F0F0F0"/>
<path d="M325.803 299.308H319.631V442.807H325.803V299.308Z" fill="#E0E0E0"/>
<path d="M353.375 299.308H347.203V442.807H353.375V299.308Z" fill="#F0F0F0"/>
<path d="M492.127 299.308H485.955V442.807H492.127V299.308Z" fill="#E0E0E0"/>
<path d="M513.527 299.308H507.354V442.807H513.527V299.308Z" fill="#F0F0F0"/>
<path d="M103.861 249.908H72.2245V434.134H103.861V249.908Z" fill="#E6E6E6"/>
<path d="M234.31 434.123H78.304V442.819H234.31V434.123Z" fill="#E6E6E6"/>
<path d="M103.861 434.123H240.378L240.378 249.896L103.861 249.896L103.861 434.123Z" fill="#F0F0F0"/>
<path d="M116.298 364.515H227.941V319.515H116.298V364.515Z" fill="#E6E6E6"/>
<path d="M116.298 417.714H227.941V372.714H116.298V417.714Z" fill="#E6E6E6"/>
<path d="M184.655 324.448H159.584C158.768 324.445 157.986 324.12 157.409 323.543C156.832 322.966 156.507 322.184 156.504 321.368C156.504 320.55 156.828 319.766 157.405 319.186C157.982 318.607 158.766 318.279 159.584 318.276H184.655C185.473 318.279 186.256 318.607 186.833 319.186C187.411 319.766 187.735 320.55 187.735 321.368C187.732 322.184 187.406 322.966 186.829 323.543C186.252 324.12 185.471 324.445 184.655 324.448Z" fill="#F0F0F0"/>
<path d="M116.298 311.305H227.941V266.305H116.298V311.305Z" fill="#E6E6E6"/>
<path d="M184.655 271.25H159.584C158.766 271.247 157.982 270.92 157.405 270.34C156.828 269.761 156.504 268.976 156.504 268.158C156.507 267.342 156.832 266.56 157.409 265.983C157.986 265.406 158.768 265.081 159.584 265.078H184.655C185.471 265.081 186.252 265.406 186.829 265.983C187.406 266.56 187.732 267.342 187.735 268.158C187.735 268.976 187.411 269.761 186.833 270.34C186.256 270.92 185.473 271.247 184.655 271.25Z" fill="#F0F0F0"/>
<path d="M184.655 377.647H159.584C158.768 377.644 157.986 377.318 157.409 376.741C156.832 376.164 156.507 375.382 156.504 374.566C156.504 373.748 156.828 372.964 157.405 372.384C157.982 371.805 158.766 371.478 159.584 371.475H184.655C185.473 371.478 186.256 371.805 186.833 372.384C187.411 372.964 187.735 373.748 187.735 374.566C187.732 375.382 187.406 376.164 186.829 376.741C186.252 377.318 185.471 377.644 184.655 377.647Z" fill="#F0F0F0"/>
<path d="M244.593 241.512H103.861V249.908H244.593V241.512Z" fill="#E6E6E6"/>
<path d="M67.801 249.896H103.861V241.501H67.801V249.896Z" fill="#E0E0E0"/>
<path d="M139.122 98.8354H87.9385V155.045H139.122V98.8354Z" fill="#E6E6E6"/>
<path d="M144.669 98.8354H91.7947V155.045H144.669V98.8354Z" fill="#F0F0F0"/>
<path d="M140.234 150.609V103.259H96.2182V150.609H140.234Z" fill="#FAFAFA"/>
<path d="M129.569 139.133V114.734H106.895V139.133H129.569Z" fill="#F0F0F0"/>
<path d="M193.085 82.2412H154.269V123.941H193.085V82.2412Z" fill="#E6E6E6"/>
<path d="M197.207 82.2412H157.986V123.941H197.207V82.2412Z" fill="#F0F0F0"/>
<path d="M193.919 120.652V85.5298H161.275V120.652H193.919Z" fill="#FAFAFA"/>
<path d="M177.591 94.2031L168.663 109.674H186.519L177.591 94.2031Z" fill="#F0F0F0"/>
<path d="M289.5 495.115C413.501 495.115 514.025 489.246 514.025 482.006C514.025 474.766 413.501 468.897 289.5 468.897C165.498 468.897 64.9753 474.766 64.9753 482.006C64.9753 489.246 165.498 495.115 289.5 495.115Z" fill="#F5F5F5"/>
<path d="M486.128 168.859H372.529C366.536 168.859 361.678 173.717 361.678 179.71V210.605C361.678 216.598 366.536 221.456 372.529 221.456H486.128C492.121 221.456 496.979 216.598 496.979 210.605V179.71C496.979 173.717 492.121 168.859 486.128 168.859Z" fill="#00CDDE"/>
<path d="M463.594 177.729H374.856C373.807 177.729 372.957 178.58 372.957 179.629V181.713C372.957 182.762 373.807 183.612 374.856 183.612H463.594C464.643 183.612 465.493 182.762 465.493 181.713V179.629C465.493 178.58 464.643 177.729 463.594 177.729Z" fill="#00CDDE"/>
<path d="M435.489 191.904H374.856C373.807 191.904 372.957 192.754 372.957 193.803V195.887C372.957 196.936 373.807 197.786 374.856 197.786H435.489C436.538 197.786 437.388 196.936 437.388 195.887V193.803C437.388 192.754 436.538 191.904 435.489 191.904Z" fill="#00CDDE"/>
<path d="M419.231 206.078H374.856C373.807 206.078 372.957 206.928 372.957 207.977V210.061C372.957 211.11 373.807 211.96 374.856 211.96H419.231C420.28 211.96 421.13 211.11 421.13 210.061V207.977C421.13 206.928 420.28 206.078 419.231 206.078Z" fill="#00CDDE"/>
<path d="M474.224 206.078H429.85C428.801 206.078 427.95 206.928 427.95 207.977V210.061C427.95 211.11 428.801 211.96 429.85 211.96H474.224C475.273 211.96 476.123 211.11 476.123 210.061V207.977C476.123 206.928 475.273 206.078 474.224 206.078Z" fill="#00CDDE"/>
<g opacity="0.5">
<path d="M463.594 177.729H374.856C373.807 177.729 372.957 178.58 372.957 179.629V181.713C372.957 182.762 373.807 183.612 374.856 183.612H463.594C464.643 183.612 465.493 182.762 465.493 181.713V179.629C465.493 178.58 464.643 177.729 463.594 177.729Z" fill="white"/>
<path d="M435.489 191.903H374.856C373.807 191.903 372.957 192.754 372.957 193.802V195.887C372.957 196.936 373.807 197.786 374.856 197.786H435.489C436.538 197.786 437.388 196.936 437.388 195.887V193.802C437.388 192.754 436.538 191.903 435.489 191.903Z" fill="white"/>
<path d="M419.231 206.077H374.856C373.807 206.077 372.957 206.927 372.957 207.976V210.061C372.957 211.11 373.807 211.96 374.856 211.96H419.231C420.28 211.96 421.13 211.11 421.13 210.061V207.976C421.13 206.927 420.28 206.077 419.231 206.077Z" fill="white"/>
<path d="M474.224 206.077H429.85C428.801 206.077 427.95 206.927 427.95 207.976V210.061C427.95 211.11 428.801 211.96 429.85 211.96H474.224C475.273 211.96 476.123 211.11 476.123 210.061V207.976C476.123 206.927 475.273 206.077 474.224 206.077Z" fill="white"/>
</g>
<path d="M395.133 156.596H266.189C257.402 156.596 250.279 163.72 250.279 172.507V217.808C250.279 226.595 257.402 233.719 266.189 233.719H395.133C403.92 233.719 411.044 226.595 411.044 217.808V172.507C411.044 163.72 403.92 156.596 395.133 156.596Z" fill="#00CDDE"/>
<path d="M399.695 169.601H269.606C268.064 169.601 266.815 170.85 266.815 172.391V175.437C266.815 176.978 268.064 178.228 269.606 178.228H399.695C401.237 178.228 402.486 176.978 402.486 175.437V172.391C402.486 170.85 401.237 169.601 399.695 169.601Z" fill="#00CDDE"/>
<path d="M358.482 190.387H269.606C268.064 190.387 266.815 191.636 266.815 193.178V196.223C266.815 197.764 268.064 199.014 269.606 199.014H358.482C360.023 199.014 361.273 197.764 361.273 196.223V193.178C361.273 191.636 360.023 190.387 358.482 190.387Z" fill="#00CDDE"/>
<path d="M334.65 211.173H269.606C268.064 211.173 266.815 212.422 266.815 213.964V217.009C266.815 218.55 268.064 219.8 269.606 219.8H334.65C336.192 219.8 337.441 218.55 337.441 217.009V213.964C337.441 212.422 336.192 211.173 334.65 211.173Z" fill="#00CDDE"/>
<path d="M404.431 211.173H350.237C348.696 211.173 347.446 212.422 347.446 213.964V217.009C347.446 218.55 348.696 219.8 350.237 219.8H404.431C405.973 219.8 407.222 218.55 407.222 217.009V213.964C407.222 212.422 405.973 211.173 404.431 211.173Z" fill="#00CDDE"/>
<g opacity="0.5">
<path d="M399.695 169.601H269.606C268.064 169.601 266.815 170.85 266.815 172.391V175.437C266.815 176.978 268.064 178.228 269.606 178.228H399.695C401.237 178.228 402.486 176.978 402.486 175.437V172.391C402.486 170.85 401.237 169.601 399.695 169.601Z" fill="white"/>
<path d="M358.482 190.387H269.606C268.064 190.387 266.815 191.636 266.815 193.178V196.223C266.815 197.764 268.064 199.014 269.606 199.014H358.482C360.023 199.014 361.273 197.764 361.273 196.223V193.178C361.273 191.636 360.023 190.387 358.482 190.387Z" fill="white"/>
<path d="M334.65 211.173H269.606C268.064 211.173 266.815 212.422 266.815 213.964V217.009C266.815 218.55 268.064 219.8 269.606 219.8H334.65C336.192 219.8 337.441 218.55 337.441 217.009V213.964C337.441 212.422 336.192 211.173 334.65 211.173Z" fill="white"/>
<path d="M404.432 211.173H350.237C348.696 211.173 347.446 212.422 347.446 213.964V217.009C347.446 218.55 348.696 219.8 350.237 219.8H404.432C405.973 219.8 407.222 218.55 407.222 217.009V213.964C407.222 212.422 405.973 211.173 404.432 211.173Z" fill="white"/>
</g>
<path d="M314.964 247.696H252.861C248.755 247.696 245.427 251.025 245.427 255.131V348.164C245.427 352.27 248.755 355.599 252.861 355.599H314.964C319.07 355.599 322.399 352.27 322.399 348.164V255.131C322.399 251.025 319.07 247.696 314.964 247.696Z" fill="#00CDDE"/>
<path opacity="0.4" d="M314.964 247.696H252.861C248.755 247.696 245.427 251.025 245.427 255.131V348.164C245.427 352.27 248.755 355.599 252.861 355.599H314.964C319.07 355.599 322.399 352.27 322.399 348.164V255.131C322.399 251.025 319.07 247.696 314.964 247.696Z" fill="black"/>
<path d="M312.116 258.952H255.698C254.943 258.952 254.332 259.563 254.332 260.318V262.368C254.332 263.122 254.943 263.734 255.698 263.734H312.116C312.87 263.734 313.482 263.122 313.482 262.368V260.318C313.482 259.563 312.87 258.952 312.116 258.952Z" fill="#FAFAFA"/>
<path d="M294.155 270.462H255.698C254.943 270.462 254.332 271.074 254.332 271.829V273.878C254.332 274.633 254.943 275.245 255.698 275.245H294.155C294.91 275.245 295.522 274.633 295.522 273.878V271.829C295.522 271.074 294.91 270.462 294.155 270.462Z" fill="#FAFAFA"/>
<path d="M312.116 281.984H255.698C254.943 281.984 254.332 282.596 254.332 283.351V285.4C254.332 286.155 254.943 286.767 255.698 286.767H312.116C312.87 286.767 313.482 286.155 313.482 285.4V283.351C313.482 282.596 312.87 281.984 312.116 281.984Z" fill="#FAFAFA"/>
<path d="M276.669 293.495H255.698C254.943 293.495 254.332 294.107 254.332 294.862V296.911C254.332 297.666 254.943 298.278 255.698 298.278H276.669C277.424 298.278 278.036 297.666 278.036 296.911V294.862C278.036 294.107 277.424 293.495 276.669 293.495Z" fill="#FAFAFA"/>
<path d="M306.013 293.495H285.042C284.287 293.495 283.675 294.107 283.675 294.862V296.911C283.675 297.666 284.287 298.278 285.042 298.278H306.013C306.768 298.278 307.38 297.666 307.38 296.911V294.862C307.38 294.107 306.768 293.495 306.013 293.495Z" fill="#FAFAFA"/>
<path d="M312.116 305.017H255.698C254.943 305.017 254.332 305.629 254.332 306.384V308.433C254.332 309.188 254.943 309.8 255.698 309.8H312.116C312.87 309.8 313.482 309.188 313.482 308.433V306.384C313.482 305.629 312.87 305.017 312.116 305.017Z" fill="#FAFAFA"/>
<path d="M312.116 316.528H255.698C254.943 316.528 254.332 317.14 254.332 317.894V319.944C254.332 320.699 254.943 321.31 255.698 321.31H312.116C312.87 321.31 313.482 320.699 313.482 319.944V317.894C313.482 317.14 312.87 316.528 312.116 316.528Z" fill="#FAFAFA"/>
<path d="M302.111 328.05H255.698C254.943 328.05 254.332 328.662 254.332 329.416V331.466C254.332 332.221 254.943 332.832 255.698 332.832H302.111C302.865 332.832 303.477 332.221 303.477 331.466V329.416C303.477 328.662 302.865 328.05 302.111 328.05Z" fill="#FAFAFA"/>
<path d="M277.353 339.56H255.698C254.943 339.56 254.332 340.172 254.332 340.926V342.976C254.332 343.731 254.943 344.343 255.698 344.343H277.353C278.107 344.343 278.719 343.731 278.719 342.976V340.926C278.719 340.172 278.107 339.56 277.353 339.56Z" fill="#FAFAFA"/>
<path d="M331.767 247.036H245.623L283.71 277.341L342.108 299.343V257.354C342.102 254.615 341.01 251.991 339.071 250.057C337.132 248.122 334.506 247.036 331.767 247.036Z" fill="#00CDDE"/>
<path opacity="0.4" d="M331.767 247.036H245.623L283.71 277.341L342.108 299.343V257.354C342.102 254.615 341.01 251.991 339.071 250.057C337.132 248.122 334.506 247.036 331.767 247.036Z" fill="black"/>
<path d="M328.004 262.646H264.974C264.027 262.646 263.26 263.413 263.26 264.36V267.556C263.26 268.502 264.027 269.27 264.974 269.27H328.004C328.95 269.27 329.717 268.502 329.717 267.556V264.36C329.717 263.413 328.95 262.646 328.004 262.646Z" fill="#FAFAFA"/>
<path d="M480.744 329.069V268.482C480.744 263.839 476.98 260.075 472.337 260.075H367.132C362.489 260.075 358.725 263.839 358.725 268.482V329.069C358.725 333.712 362.489 337.476 367.132 337.476H472.337C476.98 337.476 480.744 333.712 480.744 329.069Z" fill="#00CDDE"/>
<path d="M499.955 309.869V249.283C499.955 244.639 496.191 240.875 491.548 240.875H386.344C381.7 240.875 377.936 244.639 377.936 249.283V309.869C377.936 314.512 381.7 318.276 386.344 318.276H491.548C496.191 318.276 499.955 314.512 499.955 309.869Z" fill="#00CDDE"/>
<path opacity="0.5" d="M499.955 309.869V249.283C499.955 244.639 496.191 240.875 491.548 240.875H386.344C381.7 240.875 377.936 244.639 377.936 249.283V309.869C377.936 314.512 381.7 318.276 386.344 318.276H491.548C496.191 318.276 499.955 314.512 499.955 309.869Z" fill="white"/>
<path d="M489.278 289.106V251.807C489.278 249.741 487.604 248.067 485.538 248.067H451.157C449.091 248.067 447.416 249.741 447.416 251.807V289.106C447.416 291.172 449.091 292.847 451.157 292.847H485.538C487.604 292.847 489.278 291.172 489.278 289.106Z" fill="#00CDDE"/>
<path opacity="0.7" d="M489.278 289.106V251.807C489.278 249.741 487.604 248.067 485.538 248.067H451.157C449.091 248.067 447.416 249.741 447.416 251.807V289.106C447.416 291.172 449.091 292.847 451.157 292.847H485.538C487.604 292.847 489.278 291.172 489.278 289.106Z" fill="white"/>
<path d="M440.862 307.148V278.569C440.862 276.983 439.576 275.697 437.99 275.697H411.646C410.06 275.697 408.774 276.983 408.774 278.569V307.148C408.774 308.734 410.06 310.02 411.646 310.02H437.99C439.576 310.02 440.862 308.734 440.862 307.148Z" fill="#00CDDE"/>
<path opacity="0.3" d="M440.862 307.148V278.569C440.862 276.983 439.576 275.697 437.99 275.697H411.646C410.06 275.697 408.774 276.983 408.774 278.569V307.148C408.774 308.734 410.06 310.02 411.646 310.02H437.99C439.576 310.02 440.862 308.734 440.862 307.148Z" fill="white"/>
<path d="M424.812 125.944V110.508C424.812 105.788 420.986 101.962 416.266 101.962L133.564 101.962C128.844 101.962 125.018 105.788 125.018 110.508V125.944C125.018 130.664 128.844 134.49 133.564 134.49L416.266 134.49C420.986 134.49 424.812 130.664 424.812 125.944Z" fill="#00CDDE"/>
<path opacity="0.5" d="M424.812 125.944V110.508C424.812 105.788 420.986 101.962 416.266 101.962L133.564 101.962C128.844 101.962 125.018 105.788 125.018 110.508V125.944C125.018 130.664 128.844 134.49 133.564 134.49L416.266 134.49C420.986 134.49 424.812 130.664 424.812 125.944Z" fill="white"/>
<path d="M371.324 139.933V128.735H289.975V139.933H371.324Z" fill="#00CDDE"/>
<path opacity="0.5" d="M371.324 139.933V128.735H289.975V139.933H371.324Z" fill="white"/>
<path d="M453.982 77.887V62.4508C453.982 57.731 450.156 53.9048 445.436 53.9048L162.734 53.9048C158.014 53.9048 154.188 57.731 154.188 62.4508V77.887C154.188 82.6068 158.014 86.433 162.734 86.433L445.436 86.433C450.156 86.433 453.982 82.6068 453.982 77.887Z" fill="#00CDDE"/>
<path d="M150.957 224.953C149.938 227.269 148.815 229.77 147.83 232.214C146.846 234.657 145.827 237.17 144.935 239.671C143.106 244.547 141.639 249.552 140.547 254.644L140.211 256.497L140.095 257.192C140.095 257.389 140.095 257.643 140.025 257.875C139.981 259.002 140.005 260.131 140.095 261.256C140.315 263.7 140.709 266.317 141.253 268.934C142.226 274.18 143.465 279.587 144.727 284.914L138.786 287.23C136.017 282.182 133.659 276.919 131.734 271.493C130.72 268.669 129.9 265.779 129.279 262.843C128.931 261.218 128.715 259.569 128.631 257.91C128.631 257.446 128.631 257.006 128.631 256.508C128.631 256.01 128.631 255.455 128.712 255.13L128.943 252.814C129.289 249.832 129.819 246.873 130.53 243.956C131.178 241.061 132.012 238.247 132.846 235.468C133.68 232.688 134.722 229.955 135.822 227.269C136.366 225.926 136.98 224.594 137.513 223.262C138.045 221.931 138.671 220.657 139.412 219.232L150.957 224.953Z" fill="#E4897B"/>
<path d="M144.414 283.351L148.93 287.763L139.076 292.395C139.076 292.395 136.69 288.215 138.346 284.44L144.414 283.351Z" fill="#E4897B"/>
<path d="M152.578 294.329L144.252 297.734L139.087 292.349L148.93 287.763L152.578 294.329Z" fill="#E4897B"/>
<path opacity="0.4" d="M321.241 289.581C304.856 287.741 289.385 281.085 276.783 270.454C264.18 259.823 255.013 245.694 250.44 229.853C245.866 214.013 246.092 197.172 251.088 181.459C256.085 165.747 265.627 151.869 278.51 141.579C291.393 131.29 307.037 125.051 323.465 123.651C339.893 122.251 356.367 125.753 370.805 133.715C385.243 141.677 396.996 153.74 404.579 168.381C412.162 183.021 415.233 199.581 413.406 215.967C412.192 226.854 408.844 237.395 403.554 246.987C398.265 256.58 391.137 265.036 382.577 271.872C374.018 278.708 364.196 283.791 353.671 286.83C343.147 289.868 332.127 290.803 321.241 289.581Z" fill="#FAFAFA"/>
<path opacity="0.4" d="M381.897 141.033L255.096 242.346C254.563 241.188 254.042 240.03 253.556 238.872C250.377 231.311 248.343 223.318 247.523 215.157L357.046 127.646C366.038 130.646 374.445 135.175 381.897 141.033Z" fill="#FAFAFA"/>
<path opacity="0.4" d="M411.16 185.419L291.943 280.665C280.618 274.761 270.803 266.329 263.26 256.022L393.431 152.011C401.821 161.642 407.887 173.072 411.16 185.419Z" fill="#FAFAFA"/>
<path d="M236.684 174.858L235.584 174.488C237.489 168.866 239.884 163.421 242.74 158.218L243.748 158.774C240.929 163.919 238.565 169.301 236.684 174.858ZM250.742 147.83L249.804 147.147C259.32 134.279 271.775 123.873 286.13 116.796L286.651 117.838C272.46 124.842 260.148 135.137 250.742 147.865V147.83ZM377.647 119.425C373.863 117.395 369.948 115.619 365.928 114.11L366.345 113.021C370.404 114.566 374.358 116.377 378.18 118.44L377.647 119.425Z" fill="#00CDDE"/>
<path opacity="0.3" d="M236.684 174.858L235.584 174.488C237.489 168.866 239.884 163.421 242.74 158.218L243.748 158.774C240.929 163.919 238.565 169.301 236.684 174.858ZM250.742 147.83L249.804 147.147C259.32 134.279 271.775 123.873 286.13 116.796L286.651 117.838C272.46 124.842 260.148 135.137 250.742 147.865V147.83ZM377.647 119.425C373.863 117.395 369.948 115.619 365.928 114.11L366.345 113.021C370.404 114.566 374.358 116.377 378.18 118.44L377.647 119.425Z" fill="black"/>
<path d="M416.729 164.135C406.007 141.896 387.137 124.636 364.033 115.933C340.929 107.231 315.361 107.753 292.631 117.391C269.901 127.029 251.752 145.045 241.946 167.703C232.14 190.361 231.429 215.924 239.961 239.092C232.225 241.802 224.583 244.709 216.986 247.708C206.031 252.054 195.177 256.593 184.423 261.326C173.677 266.085 162.977 270.937 152.381 276.009C147.066 278.499 141.82 281.128 136.528 283.675C133.775 284.858 131.281 286.57 129.187 288.713C128.053 289.899 127.055 291.208 126.21 292.615C125.18 294.279 124.4 296.086 123.894 297.977C123.023 301.384 123.4 304.991 124.957 308.145C126.514 311.299 129.148 313.792 132.383 315.173C134.179 315.926 136.074 316.418 138.01 316.632C139.646 316.817 141.297 316.817 142.932 316.632C145.904 316.271 148.776 315.331 151.385 313.864C156.631 311.213 161.912 308.653 167.123 305.932C177.545 300.617 187.967 295.07 198.261 289.442C208.556 283.814 218.862 277.92 228.913 271.875C235.861 267.672 242.879 263.376 249.757 258.882C262.966 279.734 283.69 294.705 307.636 300.693C331.582 306.681 356.913 303.226 378.382 291.046C399.85 278.865 415.81 258.893 422.953 235.266C430.097 211.639 427.876 186.169 416.753 164.135H416.729ZM364.087 274.759C350.629 281.401 335.504 283.904 320.624 281.951C305.744 279.998 291.778 273.677 280.49 263.786C269.202 253.896 261.101 240.881 257.21 226.386C253.319 211.892 253.814 196.569 258.631 182.356C263.448 168.142 272.372 155.676 284.274 146.534C296.175 137.392 310.52 131.984 325.495 130.994C340.47 130.005 355.402 133.478 368.404 140.974C381.405 148.47 391.892 159.653 398.537 173.109C402.951 182.046 405.561 191.764 406.218 201.709C406.875 211.654 405.567 221.631 402.368 231.07C399.169 240.509 394.141 249.226 387.573 256.722C381.005 264.218 373.024 270.347 364.087 274.759Z" fill="#00CDDE"/>
<path opacity="0.3" d="M416.729 164.135C406.007 141.896 387.137 124.636 364.033 115.933C340.929 107.231 315.361 107.753 292.631 117.391C269.901 127.029 251.752 145.045 241.946 167.703C232.14 190.361 231.429 215.924 239.961 239.092C232.225 241.802 224.583 244.709 216.986 247.708C206.031 252.054 195.177 256.593 184.423 261.326C173.677 266.085 162.977 270.937 152.381 276.009C147.066 278.499 141.82 281.128 136.528 283.675C133.775 284.858 131.281 286.57 129.187 288.713C128.053 289.899 127.055 291.208 126.21 292.615C125.18 294.279 124.4 296.086 123.894 297.977C123.023 301.384 123.4 304.991 124.957 308.145C126.514 311.299 129.148 313.792 132.383 315.173C134.179 315.926 136.074 316.418 138.01 316.632C139.646 316.817 141.297 316.817 142.932 316.632C145.904 316.271 148.776 315.331 151.385 313.864C156.631 311.213 161.912 308.653 167.123 305.932C177.545 300.617 187.967 295.07 198.261 289.442C208.556 283.814 218.862 277.92 228.913 271.875C235.861 267.672 242.879 263.376 249.757 258.882C262.966 279.734 283.69 294.705 307.636 300.693C331.582 306.681 356.913 303.226 378.382 291.046C399.85 278.865 415.81 258.893 422.953 235.266C430.097 211.639 427.876 186.169 416.753 164.135H416.729ZM364.087 274.759C350.629 281.401 335.504 283.904 320.624 281.951C305.744 279.998 291.778 273.677 280.49 263.786C269.202 253.896 261.101 240.881 257.21 226.386C253.319 211.892 253.814 196.569 258.631 182.356C263.448 168.142 272.372 155.676 284.274 146.534C296.175 137.392 310.52 131.984 325.495 130.994C340.47 130.005 355.402 133.478 368.404 140.974C381.405 148.47 391.892 159.653 398.537 173.109C402.951 182.046 405.561 191.764 406.218 201.709C406.875 211.654 405.567 221.631 402.368 231.07C399.169 240.509 394.141 249.226 387.573 256.722C381.005 264.218 373.024 270.347 364.087 274.759Z" fill="black"/>
<path d="M182.964 183.601C182.964 184.284 183.323 184.84 183.775 184.84C184.226 184.84 184.585 184.284 184.585 183.601C184.585 182.918 184.226 182.362 183.775 182.362C183.323 182.362 182.964 182.964 182.964 183.601Z" fill="#263238"/>
<path d="M183.288 184.84C184.108 186.937 185.211 188.912 186.565 190.711C186.097 191.046 185.561 191.275 184.995 191.381C184.429 191.487 183.846 191.468 183.288 191.325V184.84Z" fill="#DE5753"/>
<path d="M180.567 179.791C180.502 179.791 180.439 179.777 180.381 179.749C180.322 179.72 180.271 179.68 180.231 179.629C180.171 179.541 180.147 179.432 180.164 179.327C180.181 179.221 180.238 179.126 180.324 179.062C180.834 178.675 181.43 178.417 182.061 178.31C182.692 178.203 183.339 178.251 183.948 178.448C184.003 178.463 184.054 178.489 184.098 178.525C184.142 178.561 184.178 178.605 184.203 178.656C184.229 178.706 184.244 178.762 184.247 178.818C184.249 178.875 184.24 178.931 184.22 178.984C184.2 179.037 184.169 179.085 184.128 179.125C184.088 179.165 184.04 179.197 183.987 179.217C183.935 179.237 183.878 179.247 183.821 179.244C183.765 179.241 183.709 179.226 183.659 179.201C183.175 179.052 182.663 179.022 182.165 179.113C181.668 179.203 181.199 179.412 180.799 179.722C180.73 179.767 180.649 179.791 180.567 179.791Z" fill="#263238"/>
<path d="M159.572 188.754C160.73 194.972 162.004 206.379 157.65 210.536C157.65 210.536 159.352 216.847 170.921 216.847C183.659 216.847 176.989 210.536 176.989 210.536C170.041 208.868 170.238 203.727 171.442 198.886L159.572 188.754Z" fill="#E4897B"/>
<path d="M152.451 213.813C153.829 211.671 151.513 206.471 151.513 206.471C151.513 206.471 171.986 201.318 180.359 209.227C182.096 210.86 180.173 213.269 180.173 213.269L152.451 213.813Z" fill="#00CDDE"/>
<path opacity="0.1" d="M152.451 213.813C153.829 211.671 151.513 206.471 151.513 206.471C151.513 206.471 171.986 201.318 180.359 209.227C182.096 210.86 180.173 213.269 180.173 213.269L152.451 213.813Z" fill="black"/>
<path d="M118.579 450.08C117.502 450.08 115.777 448.285 115.267 447.613C115.245 447.581 115.234 447.543 115.234 447.503C115.234 447.464 115.245 447.426 115.267 447.393C115.286 447.361 115.313 447.334 115.346 447.316C115.378 447.297 115.415 447.288 115.453 447.289C115.58 447.289 118.417 447.544 119.193 448.551C119.277 448.658 119.338 448.781 119.37 448.913C119.402 449.045 119.405 449.182 119.378 449.316C119.368 449.488 119.305 449.653 119.197 449.788C119.089 449.923 118.942 450.021 118.776 450.068L118.579 450.08ZM115.893 447.764C116.738 448.737 118.093 449.837 118.672 449.698C118.672 449.698 118.903 449.64 118.973 449.269C118.988 449.192 118.986 449.112 118.966 449.036C118.946 448.96 118.908 448.889 118.857 448.829C117.999 448.18 116.967 447.801 115.893 447.741V447.764Z" fill="#00CDDE"/>
<path d="M116.02 447.741C115.812 447.762 115.603 447.762 115.395 447.741C115.358 447.738 115.323 447.724 115.294 447.702C115.265 447.679 115.244 447.648 115.233 447.613C115.216 447.581 115.208 447.545 115.208 447.509C115.208 447.473 115.216 447.437 115.233 447.405C115.314 447.335 117.016 445.564 118.301 445.564C118.455 445.56 118.608 445.589 118.75 445.649C118.891 445.709 119.019 445.798 119.124 445.911C119.239 446.008 119.318 446.141 119.347 446.288C119.377 446.435 119.355 446.588 119.286 446.722C118.95 447.37 117.178 447.741 116.02 447.741ZM115.87 447.335C117.028 447.335 118.707 446.977 118.985 446.467C118.985 446.467 119.066 446.316 118.88 446.131C118.813 446.058 118.73 446 118.638 445.962C118.546 445.924 118.447 445.907 118.348 445.911C117.398 446.129 116.536 446.625 115.87 447.335Z" fill="#00CDDE"/>
<path d="M194.996 476.366C194.118 476.36 193.242 476.279 192.379 476.123C192.336 476.115 192.297 476.092 192.269 476.058C192.242 476.024 192.227 475.982 192.228 475.938C192.222 475.898 192.227 475.857 192.243 475.82C192.26 475.783 192.287 475.752 192.321 475.73C192.448 475.66 195.413 473.958 196.837 474.352C196.969 474.381 197.094 474.438 197.203 474.517C197.313 474.597 197.405 474.698 197.474 474.815C197.564 474.944 197.613 475.097 197.613 475.255C197.613 475.412 197.564 475.566 197.474 475.695C197.138 476.216 196.084 476.366 194.996 476.366ZM193.039 475.822C194.614 476.054 196.767 476.042 197.161 475.486C197.219 475.417 197.265 475.289 197.161 475.046C197.073 474.902 196.931 474.798 196.767 474.757C195.864 474.525 194.069 475.289 193.039 475.822Z" fill="#00CDDE"/>
<path d="M192.425 476.135C192.387 476.146 192.347 476.146 192.309 476.135C192.277 476.115 192.252 476.085 192.237 476.049C192.223 476.014 192.22 475.975 192.228 475.938C192.307 474.733 192.769 473.584 193.548 472.661C193.706 472.525 193.891 472.425 194.091 472.367C194.29 472.309 194.5 472.295 194.706 472.325C195.262 472.325 195.424 472.661 195.459 472.881C195.609 473.842 193.583 475.683 192.552 476.147L192.425 476.135ZM194.498 472.661C194.243 472.659 193.996 472.75 193.803 472.916C193.148 473.647 192.743 474.568 192.645 475.544C193.687 474.908 195.077 473.472 194.961 472.893C194.961 472.893 194.961 472.696 194.567 472.661H194.498Z" fill="#00CDDE"/>
<path d="M183.068 475.927H191.58L192.425 456.229H183.914L183.068 475.927Z" fill="#E4897B"/>
<path d="M107.277 442.113L114.387 446.768L130.09 433.509L122.968 428.842L107.277 442.113Z" fill="#E4897B"/>
<path d="M115.557 446.328L108.169 440.271C108.038 440.164 107.875 440.105 107.706 440.105C107.537 440.105 107.373 440.164 107.242 440.271L101.151 445.054C101.004 445.171 100.885 445.32 100.804 445.489C100.722 445.659 100.68 445.844 100.68 446.032C100.68 446.22 100.722 446.406 100.804 446.576C100.885 446.745 101.004 446.894 101.151 447.011C103.768 449.084 105.146 449.964 108.4 452.627C110.404 454.26 115.348 459.263 118.139 461.521C120.93 463.779 123.489 461.347 122.563 460.177C118.406 454.909 116.773 450.404 116.298 447.613C116.216 447.109 115.952 446.651 115.557 446.328Z" fill="#263238"/>
<path d="M191.522 474.942H182.258C182.089 474.943 181.925 475 181.793 475.105C181.66 475.21 181.567 475.357 181.528 475.521L179.849 483.083C179.807 483.266 179.807 483.456 179.849 483.64C179.891 483.823 179.975 483.994 180.093 484.14C180.212 484.286 180.361 484.404 180.532 484.483C180.702 484.563 180.888 484.603 181.076 484.6C184.423 484.542 189.264 484.345 193.479 484.345C198.4 484.345 202.662 484.611 208.428 484.611C211.902 484.611 212.898 481.079 211.428 480.767C204.781 479.308 199.338 479.157 193.594 475.602C192.978 475.194 192.26 474.965 191.522 474.942Z" fill="#263238"/>
<path d="M140.882 213.072C133.506 216.546 129.302 239.822 129.302 239.822L147.332 247.013C149.972 240.569 152.105 233.929 153.713 227.153C156.191 216.43 148.433 209.482 140.882 213.072Z" fill="#263238"/>
<path d="M150.447 226.192C145.989 230.708 143.951 239.555 143.059 245.311L147.379 247.036C149.943 240.775 152.033 234.33 153.632 227.755C153.25 225.301 152.3 224.316 150.447 226.192Z" fill="#203048"/>
<path d="M190.074 212.91C190.074 212.91 199.13 223.147 190.584 286.443H145.086C144.773 279.495 149.162 245.392 142.422 212.482C147.451 211.507 152.538 210.864 157.65 210.559C164.091 210.177 170.548 210.177 176.989 210.559C181.405 211.004 185.78 211.79 190.074 212.91Z" fill="#263238"/>
<path d="M194.231 237.483L186.565 224.27C185.086 230.435 184.481 236.777 184.77 243.111C184.979 247.65 189.136 264.464 192.876 266.919C193.869 257.139 194.321 247.312 194.231 237.483Z" fill="#203048"/>
<path d="M195.297 221.954C196.455 227.581 197.613 233.348 198.852 238.999C200.091 244.65 201.376 250.325 202.87 255.802C203.252 257.157 203.611 258.546 204.028 259.843L204.341 260.839L204.491 261.337V261.279C204.41 261.175 204.318 261.164 204.387 261.279C204.863 261.799 205.471 262.179 206.147 262.379C207.242 262.787 208.369 263.101 209.517 263.317C214.992 264.185 220.535 264.546 226.076 264.394L227.176 270.694C225.625 271.192 224.177 271.551 222.649 271.91C221.12 272.269 219.615 272.57 218.075 272.801C214.888 273.332 211.657 273.549 208.428 273.45C206.634 273.402 204.849 273.169 203.102 272.755C200.88 272.269 198.793 271.301 196.987 269.918C195.808 268.966 194.835 267.784 194.127 266.444C193.942 266.097 193.78 265.703 193.629 265.367L193.421 264.823L192.992 263.665C192.402 262.194 191.915 260.747 191.383 259.299C189.426 253.509 187.793 247.661 186.357 241.825C184.921 235.989 183.682 230.164 182.651 224.177L195.297 221.954Z" fill="#E4897B"/>
<path d="M178.714 219.117C176.317 226.887 186.033 250.059 186.033 250.059L205.383 245.195C205.383 245.195 204.642 233.152 200.23 223.598C193.583 209.193 181.586 209.795 178.714 219.117Z" fill="#263238"/>
<path d="M225.914 264.395L235.549 264.151L230.917 274.18C230.917 274.18 226.991 274.701 223.772 269.409L220.379 265.356L224.281 264.58C224.819 264.467 225.365 264.405 225.914 264.395Z" fill="#E4897B"/>
<path d="M241.628 266.016L236.116 274.33L230.917 274.18L235.549 264.151L241.628 266.016Z" fill="#E4897B"/>
<path d="M192.425 456.229L191.985 466.385H183.474L183.914 456.229H192.425Z" fill="#CE6F64"/>
<path d="M122.968 428.842L130.09 433.509L121.984 440.341L114.874 435.686L122.968 428.842Z" fill="#CE6F64"/>
<path d="M160.105 182.13C160.615 190.549 160.487 195.517 164.737 199.836C171.129 206.356 181.54 202.5 183.555 194.046C185.373 186.473 184.238 173.967 175.993 170.608C174.174 169.874 172.198 169.614 170.25 169.853C168.303 170.091 166.448 170.821 164.86 171.972C163.272 173.124 162.003 174.66 161.171 176.437C160.339 178.214 159.972 180.173 160.105 182.13Z" fill="#E4897B"/>
<path d="M150.193 180.648C152.289 188.325 157.222 197.173 163.602 197.74C171.523 198.435 175.101 190.248 176.143 181.794C180.891 178.54 178.401 174.962 183.161 174.51C189.275 173.931 187.318 162.745 179.27 160.95C179.27 160.95 181.968 165.988 176.306 163.44C170.92 160.881 164.937 159.843 159.005 160.441C159.005 160.441 166.231 164.054 159.167 165.663C152.103 167.273 149.996 171.627 153.25 174.256C153.25 174.267 148.815 175.599 150.193 180.648Z" fill="#263238"/>
<path d="M171.315 183.531C171.47 185.624 172.313 187.607 173.712 189.171C175.564 191.22 177.498 189.947 177.823 187.457C178.124 185.222 177.51 181.458 175.24 180.324C172.97 179.189 171.164 181.007 171.315 183.531Z" fill="#E4897B"/>
<path d="M174.441 286.443C174.441 286.443 182.732 346.485 176.201 370.548C165.849 408.646 126.268 440.804 126.268 440.804L112.847 432.003C112.847 432.003 146.557 404.848 150.679 372.945C154.385 344.308 145.086 309.672 145.086 286.431L174.441 286.443Z" fill="#00CDDE"/>
<path opacity="0.1" d="M174.441 286.443C174.441 286.443 182.732 346.485 176.201 370.548C165.849 408.646 126.268 440.804 126.268 440.804L112.847 432.003C112.847 432.003 146.557 404.848 150.679 372.945C154.385 344.308 145.086 309.672 145.086 286.431L174.441 286.443Z" fill="black"/>
<path d="M177.869 320.766C175.662 318.237 173.232 315.912 170.608 313.818C172.021 333.307 173.179 362.176 171.894 382.684C173.622 378.753 175.062 374.7 176.201 370.56C179.386 358.806 179.05 338.506 177.869 320.766Z" fill="#00CDDE"/>
<path opacity="0.3" d="M177.869 320.766C175.662 318.237 173.232 315.912 170.608 313.818C172.021 333.307 173.179 362.176 171.894 382.684C173.622 378.753 175.062 374.7 176.201 370.56C179.386 358.806 179.05 338.506 177.869 320.766Z" fill="black"/>
<path d="M131.676 437.805C131.734 437.805 126.477 441.279 126.477 441.279L111.817 431.667L116.449 427.834L131.676 437.805Z" fill="#00CDDE"/>
<path opacity="0.3" d="M131.676 437.805C131.734 437.805 126.477 441.279 126.477 441.279L111.817 431.667L116.449 427.834L131.676 437.805Z" fill="black"/>
<path d="M190.584 286.443C190.584 286.443 203.391 340.753 204.294 366.704C205.314 395.793 195.158 464.416 195.158 464.416H180.741C180.741 464.416 178.969 395.26 178.332 368.765C177.626 339.873 160.673 286.443 160.673 286.443H190.584Z" fill="#00CDDE"/>
<path opacity="0.1" d="M190.584 286.443C190.584 286.443 203.391 340.753 204.294 366.704C205.314 395.793 195.158 464.416 195.158 464.416H180.741C180.741 464.416 178.969 395.26 178.332 368.765C177.626 339.873 160.673 286.443 160.673 286.443H190.584Z" fill="black"/>
<path d="M197.925 458.684C197.995 458.684 197.115 464.659 197.115 464.659H179.583L179.108 459.32L197.925 458.684Z" fill="#00CDDE"/>
<path opacity="0.3" d="M197.925 458.684C197.995 458.684 197.115 464.659 197.115 464.659H179.583L179.108 459.32L197.925 458.684Z" fill="black"/>
<path d="M412.248 234.251C413.232 235.178 414.008 235.965 414.819 236.845C415.629 237.725 416.394 238.582 417.135 239.474C418.64 241.246 420.053 243.11 421.419 244.986C424.149 248.749 426.576 252.722 428.68 256.867L429.109 257.713C429.318 258.122 429.492 258.548 429.63 258.986C429.909 259.834 430.081 260.713 430.139 261.603C430.215 263.174 429.999 264.744 429.502 266.235C428.656 268.713 427.4 271.03 425.785 273.091C422.875 276.828 419.443 280.127 415.595 282.887L412.711 279.576C414.066 277.989 415.479 276.287 416.741 274.585C418.026 272.935 419.187 271.194 420.215 269.374C421.176 267.786 421.887 266.059 422.323 264.255C422.472 263.61 422.5 262.942 422.404 262.287C422.362 262.066 422.292 261.852 422.195 261.65C422.152 261.561 422.102 261.476 422.045 261.395L421.674 260.77C419.441 257.128 417.017 253.607 414.414 250.22C413.128 248.518 411.75 246.885 410.361 245.276C409.677 244.465 408.971 243.678 408.265 242.89C407.558 242.103 406.794 241.315 406.18 240.702L412.248 234.251Z" fill="#E4897B"/>
<path d="M413.823 278.603L405.173 277.19L409.7 284.764C409.7 284.764 415.27 284.567 416.857 281.29L413.823 278.603Z" fill="#E4897B"/>
<path d="M398.781 280.688L402.903 286.837L409.7 284.764L405.173 277.19L398.781 280.688Z" fill="#E4897B"/>
<path d="M413.406 476.262C412.818 476.312 412.231 476.152 411.75 475.81C411.605 475.673 411.498 475.501 411.439 475.31C411.38 475.119 411.372 474.917 411.414 474.722C411.423 474.597 411.465 474.478 411.536 474.376C411.608 474.274 411.706 474.193 411.82 474.143C412.827 473.691 415.467 475.382 415.768 475.579C415.803 475.6 415.829 475.632 415.844 475.669C415.858 475.707 415.86 475.748 415.849 475.787C415.845 475.827 415.828 475.864 415.801 475.893C415.774 475.922 415.738 475.942 415.699 475.949C414.949 476.14 414.18 476.245 413.406 476.262ZM412.248 474.467C412.164 474.454 412.078 474.454 411.993 474.467C411.942 474.491 411.899 474.528 411.868 474.575C411.838 474.622 411.821 474.677 411.82 474.733C411.789 474.863 411.792 474.998 411.828 475.125C411.865 475.253 411.934 475.369 412.028 475.463C412.468 475.857 413.603 475.914 415.12 475.613C414.251 475.039 413.273 474.649 412.248 474.467Z" fill="#00CDDE"/>
<path d="M415.722 475.938H415.618C414.796 475.463 413.209 473.622 413.406 472.615C413.443 472.456 413.531 472.313 413.657 472.209C413.782 472.105 413.938 472.044 414.101 472.036C414.257 472.013 414.417 472.026 414.567 472.074C414.718 472.123 414.855 472.204 414.969 472.313C415.919 473.147 415.93 475.648 415.93 475.787C415.928 475.823 415.918 475.857 415.9 475.887C415.881 475.917 415.856 475.943 415.826 475.961L415.722 475.938ZM414.24 472.464H414.147C413.892 472.464 413.835 472.603 413.811 472.707C413.696 473.298 414.68 474.711 415.502 475.371C415.522 474.399 415.243 473.445 414.703 472.638C414.634 472.573 414.551 472.524 414.461 472.494C414.371 472.464 414.276 472.454 414.182 472.464H414.24Z" fill="#00CDDE"/>
<path d="M373.941 476.262C373.202 476.333 372.461 476.144 371.845 475.729C371.706 475.606 371.599 475.451 371.533 475.278C371.466 475.105 371.442 474.918 371.463 474.734C371.471 474.621 371.507 474.512 371.567 474.417C371.628 474.322 371.712 474.244 371.811 474.189C372.888 473.587 376.338 475.347 376.732 475.567C376.768 475.591 376.797 475.624 376.815 475.663C376.834 475.701 376.841 475.745 376.836 475.787C376.83 475.828 376.81 475.865 376.781 475.894C376.752 475.924 376.715 475.943 376.674 475.949C375.775 476.14 374.86 476.245 373.941 476.262ZM372.401 474.467C372.269 474.458 372.137 474.486 372.019 474.548C371.977 474.568 371.942 474.599 371.918 474.638C371.893 474.677 371.88 474.722 371.88 474.768C371.862 474.889 371.874 475.012 371.915 475.127C371.955 475.242 372.023 475.345 372.112 475.428C372.644 475.903 374.069 475.984 375.991 475.66C374.87 475.063 373.656 474.66 372.401 474.467Z" fill="#00CDDE"/>
<path d="M376.64 475.938H376.547C375.516 475.474 373.467 473.622 373.629 472.614C373.629 472.383 373.837 472.093 374.405 472.035C374.612 472.013 374.822 472.033 375.021 472.095C375.22 472.157 375.404 472.258 375.563 472.394C376.651 473.297 376.86 475.636 376.86 475.741C376.864 475.776 376.859 475.812 376.845 475.845C376.83 475.877 376.807 475.905 376.778 475.926C376.735 475.945 376.686 475.949 376.64 475.938ZM374.567 472.464H374.439C374.069 472.464 374.046 472.649 374.034 472.695C373.941 473.286 375.331 474.756 376.35 475.393C376.25 474.403 375.845 473.469 375.192 472.718C375.016 472.569 374.797 472.479 374.567 472.464Z" fill="#00CDDE"/>
<path d="M390.327 207.629C389.991 212.864 389.088 223.494 393.106 226.435C393.106 226.435 392.377 231.797 382.893 233.047C372.471 234.402 377.23 228.52 377.23 228.52C382.754 226.412 382.047 222.209 380.542 218.364L390.327 207.629Z" fill="#E4897B"/>
<path d="M368.754 198.377C368.696 198.377 368.64 198.365 368.588 198.341C368.536 198.317 368.49 198.282 368.452 198.238C368.121 197.845 367.703 197.536 367.23 197.334C366.757 197.133 366.244 197.046 365.731 197.08C365.677 197.09 365.621 197.089 365.568 197.076C365.514 197.064 365.464 197.041 365.419 197.008C365.375 196.976 365.337 196.935 365.309 196.887C365.281 196.84 365.263 196.787 365.256 196.733C365.243 196.624 365.274 196.514 365.341 196.427C365.408 196.34 365.507 196.284 365.615 196.269C366.269 196.214 366.927 196.318 367.532 196.572C368.137 196.826 368.671 197.223 369.089 197.728C369.14 197.789 369.172 197.862 369.182 197.94C369.192 198.018 369.18 198.097 369.148 198.168C369.115 198.24 369.063 198.3 368.997 198.343C368.932 198.386 368.855 198.41 368.777 198.412L368.754 198.377Z" fill="#263238"/>
<path d="M366.947 203.507C366.536 205.168 365.901 206.765 365.06 208.255C365.446 208.463 365.874 208.583 366.312 208.607C366.75 208.631 367.189 208.558 367.596 208.394L366.947 203.507Z" fill="#DE5753"/>
<path d="M367.41 202.233C367.503 202.928 367.213 203.53 366.762 203.599C366.31 203.669 365.859 203.136 365.778 202.441C365.696 201.746 365.974 201.144 366.426 201.086C366.878 201.029 367.329 201.492 367.41 202.233Z" fill="#263238"/>
<path d="M366.634 201.098L364.909 200.832C364.909 200.832 365.928 202.024 366.634 201.098Z" fill="#263238"/>
<path d="M386.181 475.752H377.496L376.917 455.661H385.602L386.181 475.752Z" fill="#E4897B"/>
<path d="M425.611 475.752H416.926L414.136 455.661H422.821L425.611 475.752Z" fill="#E4897B"/>
<path d="M416.394 474.78H426.144C426.31 474.778 426.471 474.837 426.597 474.946C426.723 475.055 426.805 475.206 426.827 475.37L427.985 483.094C428.006 483.289 427.986 483.486 427.926 483.672C427.866 483.859 427.767 484.03 427.636 484.176C427.504 484.321 427.344 484.437 427.165 484.516C426.985 484.595 426.792 484.636 426.596 484.634C423.203 484.577 421.558 484.38 417.274 484.38C414.634 484.38 410.777 484.646 407.141 484.646C403.505 484.646 403.308 481.045 404.825 480.72C411.623 479.261 412.7 477.246 414.981 475.312C415.379 474.982 415.876 474.795 416.394 474.78Z" fill="#263238"/>
<path d="M377.207 474.78H386.946C387.113 474.778 387.276 474.837 387.404 474.945C387.531 475.054 387.615 475.205 387.64 475.37L388.798 483.094C388.82 483.289 388.8 483.486 388.739 483.672C388.679 483.859 388.58 484.03 388.449 484.176C388.318 484.321 388.157 484.437 387.978 484.516C387.799 484.595 387.605 484.636 387.409 484.634C384.016 484.577 382.372 484.38 378.087 484.38C375.447 484.38 369.981 484.646 366.345 484.646C362.709 484.646 362.512 481.045 364.029 480.72C370.826 479.261 373.501 477.246 375.794 475.312C376.192 474.982 376.69 474.795 377.207 474.78Z" fill="#263238"/>
<path d="M376.917 455.661L377.219 466.025H385.904L385.602 455.661H376.917Z" fill="#CE6F64"/>
<path d="M422.821 455.661H414.136L415.583 466.025H424.257L422.821 455.661Z" fill="#CE6F64"/>
<path d="M390.443 196.791C391.033 205.383 391.462 209.007 387.733 213.952C382.117 221.375 371.44 220.229 368.29 211.984C365.453 204.561 364.967 191.765 372.864 187.272C374.602 186.276 376.565 185.741 378.567 185.717C380.569 185.693 382.545 186.18 384.306 187.134C386.066 188.087 387.554 189.475 388.629 191.165C389.703 192.855 390.327 194.791 390.443 196.791Z" fill="#E4897B"/>
<path d="M395.445 204.769C400.263 207.456 403.841 200.832 403.841 200.832C403.841 200.832 395.202 201.77 395.978 196.628C396.997 189.808 392.11 181.516 379.859 182.582C379.176 182.64 378.527 182.721 377.89 182.825C376.608 182.217 375.157 182.06 373.774 182.379C372.391 182.699 371.157 183.476 370.271 184.585C366.797 184.874 362.107 189.02 365.291 194.497C365.515 193.868 365.861 193.289 366.31 192.795C366.576 196.003 369.379 201.098 372.876 201.434C373.629 205.823 370.711 210.906 371.718 215.492C373.212 222.104 384.363 223.598 384.363 223.598C383.979 222.772 383.836 221.855 383.95 220.951C384.065 220.047 384.433 219.195 385.012 218.491C392.585 221.965 397.576 218.572 397.576 218.572C392.411 216.65 393.975 213.222 393.975 213.222C395.758 214.014 397.779 214.084 399.612 213.416C401.446 212.749 402.949 211.397 403.806 209.644C402.091 209.726 400.388 209.309 398.905 208.443C397.421 207.578 396.22 206.302 395.445 204.769Z" fill="#263238"/>
<path d="M375.898 202.754C375.919 203.579 375.776 204.399 375.478 205.168C375.18 205.937 374.732 206.64 374.161 207.236C372.633 208.822 370.757 207.71 370.247 205.684C369.796 203.854 370.05 200.832 372.042 199.998C372.481 199.826 372.955 199.766 373.422 199.824C373.89 199.881 374.335 200.055 374.719 200.329C375.102 200.603 375.41 200.968 375.616 201.392C375.823 201.815 375.919 202.284 375.898 202.754Z" fill="#E4897B"/>
<path d="M383.113 282.807C383.113 282.807 385.313 339.965 390.547 373.524C394.762 400.645 413.487 464.01 413.487 464.01H425.322C425.322 464.01 415.56 402.81 413.418 376.002C407.998 308.155 422.068 293.588 408.786 279.46L383.113 282.807Z" fill="#263238"/>
<path d="M393.002 300.883C393.002 300.883 387.652 299.956 384.526 310.147C385.684 329.451 387.664 355.066 390.547 373.524C391.184 377.635 392.157 382.591 393.349 388.022C391.091 355.413 393.002 300.883 393.002 300.883Z" fill="#161F33"/>
<path d="M373.884 284.011C373.884 284.011 364.133 347.249 364.701 373.71C365.291 401.235 375.377 464.034 375.377 464.034H387.108C387.108 464.034 385.255 402.868 386.286 375.84C387.444 346.369 399.475 280.688 399.475 280.688L373.884 284.011Z" fill="#263238"/>
<path d="M427.036 464.566H411.299L410.071 459.286L426.92 459.401L427.036 464.566Z" fill="#00CDDE"/>
<path opacity="0.2" d="M427.036 464.566H411.299L410.071 459.286L426.92 459.401L427.036 464.566Z" fill="black"/>
<path d="M408.195 226.447C412.723 226.887 419.601 239.752 419.601 239.752L408.172 248.518C408.172 248.518 398.711 240.215 399.834 235.548C401.004 230.696 403.852 226.041 408.195 226.447Z" fill="#00CDDE"/>
<path opacity="0.1" d="M408.195 226.447C412.723 226.887 419.601 239.752 419.601 239.752L408.172 248.518C408.172 248.518 398.711 240.215 399.834 235.548C401.004 230.696 403.852 226.041 408.195 226.447Z" fill="black"/>
<path d="M404.779 231.982C403.625 231.671 402.43 231.538 401.235 231.588C400.628 232.854 400.158 234.182 399.834 235.549C398.676 240.181 408.172 248.518 408.172 248.518L409.017 247.87L404.779 231.982Z" fill="#00CDDE"/>
<path opacity="0.3" d="M404.779 231.982C403.625 231.671 402.43 231.538 401.235 231.588C400.628 232.854 400.158 234.182 399.834 235.549C398.676 240.181 408.172 248.518 408.172 248.518L409.017 247.87L404.779 231.982Z" fill="black"/>
<path d="M370.004 244.338C366.704 252.687 363.23 261.175 360.462 269.547C360.277 270.08 360.126 270.59 359.964 271.111L359.571 272.396C359.463 272.775 359.463 273.176 359.571 273.554C360.224 275.002 361.261 276.243 362.57 277.144C366.032 279.628 369.804 281.649 373.791 283.154L372.749 287.415C367.845 286.769 363.102 285.222 358.76 282.853C356.088 281.425 353.911 279.221 352.518 276.53C351.718 274.811 351.441 272.894 351.719 271.018C351.746 270.788 351.784 270.56 351.835 270.335L351.951 269.849L352.148 268.968C352.287 268.378 352.426 267.81 352.576 267.231C353.734 262.599 355.217 258.199 356.78 253.833C358.343 249.468 359.976 245.16 361.817 240.864L370.004 244.338Z" fill="#E4897B"/>
<path d="M362.975 232.619C362.975 232.619 359.061 234.599 373.884 284.011L408.832 279.449C406.377 265.298 405.219 256.532 408.195 226.447C403.184 226.088 398.153 226.088 393.141 226.447C387.806 226.757 382.5 227.454 377.265 228.531C370.56 230.025 362.975 232.619 362.975 232.619Z" fill="#00CDDE"/>
<path opacity="0.1" d="M362.975 232.619C362.975 232.619 359.061 234.599 373.884 284.011L408.832 279.449C406.377 265.298 405.219 256.532 408.195 226.447C403.184 226.088 398.153 226.088 393.141 226.447C387.806 226.757 382.5 227.454 377.265 228.531C370.56 230.025 362.975 232.619 362.975 232.619Z" fill="black"/>
<path d="M409.087 277.329L411.09 280.236C411.241 280.467 410.986 280.745 410.592 280.803L373.941 285.597C373.629 285.597 373.339 285.516 373.293 285.319L372.575 282.228C372.517 282.019 372.772 281.799 373.119 281.753L408.508 277.121C408.614 277.104 408.723 277.114 408.824 277.15C408.925 277.187 409.016 277.248 409.087 277.329Z" fill="#00CDDE"/>
<path opacity="0.2" d="M409.087 277.329L411.09 280.236C411.241 280.467 410.986 280.745 410.592 280.803L373.941 285.597C373.629 285.597 373.339 285.516 373.293 285.319L372.575 282.228C372.517 282.019 372.772 281.799 373.119 281.753L408.508 277.121C408.614 277.104 408.723 277.114 408.824 277.15C408.925 277.187 409.016 277.248 409.087 277.329Z" fill="black"/>
<path d="M404.848 281.903L405.798 281.776C405.983 281.776 406.111 281.637 406.088 281.521L405.115 277.515C405.078 277.446 405.019 277.393 404.947 277.363C404.875 277.334 404.795 277.33 404.721 277.352L403.772 277.468C403.575 277.468 403.447 277.607 403.482 277.735L404.455 281.73C404.478 281.857 404.663 281.927 404.848 281.903Z" fill="#263238"/>
<path d="M381.874 284.868L382.823 284.74C383.009 284.74 383.148 284.601 383.113 284.486L382.14 280.479C382.102 280.411 382.043 280.358 381.972 280.326C381.901 280.295 381.822 280.288 381.746 280.305L380.797 280.433C380.612 280.433 380.473 280.571 380.507 280.687L381.48 284.694C381.503 284.868 381.688 284.937 381.874 284.868Z" fill="#263238"/>
<path d="M364.608 249.387C365.569 253.856 366.924 259.519 368.904 266.687L369.333 248.518L364.608 249.387Z" fill="#00CDDE"/>
<path opacity="0.3" d="M364.608 249.387C365.569 253.856 366.924 259.519 368.904 266.687L369.333 248.518L364.608 249.387Z" fill="black"/>
<path d="M362.975 232.619C358.633 234.367 354.869 249.225 354.869 249.225L369.807 256.497C369.807 256.497 377.022 238.328 373.791 234.784C370.56 231.241 367.978 230.615 362.975 232.619Z" fill="#00CDDE"/>
<path opacity="0.1" d="M362.975 232.619C358.633 234.367 354.869 249.225 354.869 249.225L369.807 256.497C369.807 256.497 377.022 238.328 373.791 234.784C370.56 231.241 367.978 230.615 362.975 232.619Z" fill="black"/>
<path d="M389.111 464.566H373.374L372.146 459.286L389.667 459.401L389.111 464.566Z" fill="#00CDDE"/>
<path opacity="0.2" d="M389.111 464.566H373.374L372.146 459.286L389.667 459.401L389.111 464.566Z" fill="black"/>
<path d="M374.034 281.718L372.772 281.197C372.462 281.071 372.123 281.029 371.792 281.076C371.46 281.122 371.147 281.256 370.883 281.463C370.62 281.67 370.416 281.943 370.292 282.254C370.168 282.565 370.129 282.904 370.178 283.235L371.093 289.268C371.137 289.57 371.247 289.859 371.416 290.113C371.585 290.367 371.808 290.58 372.07 290.738C372.331 290.895 372.624 290.992 372.928 291.023C373.232 291.053 373.538 291.015 373.826 290.913C374.285 290.746 374.715 290.507 375.099 290.206C375.518 289.859 375.85 289.418 376.067 288.919C376.284 288.42 376.381 287.878 376.35 287.334L376.223 284.833C376.201 284.157 375.982 283.502 375.593 282.949C375.204 282.396 374.662 281.968 374.034 281.718Z" fill="#E4897B"/>
</svg>
